<svg preserveAspectRatio="xMidYMid meet" data-bbox="8.499 23.5 83.001 52.733" xmlns="http://www.w3.org/2000/svg" viewBox="8.499 23.5 83.001 52.733" height="100" width="100" data-type="color" role="presentation" aria-hidden="true" aria-label=""><defs><style>#comp-lv7pn3eh svg [data-color="1"] {fill: #FF3B54;}</style></defs>
    <g>
        <mask fill="#000000" height="54" width="84" y="23" x="8" maskUnits="userSpaceOnUse" id="ecae4cc8-d696-4a13-b17d-230dfc7f1176_comp-lv7pn3eh">
            <path fill="#ffffff" d="M92 23v54H8V23h84z"></path>
            <path d="M80.775 71.255c.82.766 1.833 1.15 3.038 1.15 1.204 0 2.19-.384 2.955-1.15C87.59 70.434 88 69.42 88 68.217V48.019c0-4.543-.876-8.375-2.627-11.495-1.697-3.12-4.05-5.474-7.061-7.06C75.356 27.82 71.99 27 68.212 27c-3.612 0-6.869.794-9.77 2.381a18.808 18.808 0 0 0-4.187 3.088v-.871c0-1.26-.383-2.272-1.15-3.038a3.753 3.753 0 0 0-.77-.595c-.665-.424-1.465-.637-2.402-.637-1.205 0-2.217.384-3.038 1.15-.767.766-1.15 1.779-1.15 3.038V54.67c0 1.97-.547 3.749-1.642 5.336-1.095 1.588-2.572 2.847-4.434 3.777-1.806.93-3.886 1.396-6.24 1.396-2.463 0-4.68-.465-6.65-1.396-1.97-.985-3.53-2.463-4.68-4.434-1.15-2.025-1.724-4.57-1.724-7.635V31.516c0-1.204-.41-2.19-1.232-2.956-.766-.821-1.751-1.232-2.956-1.232-1.204 0-2.217.411-3.038 1.232-.766.766-1.149 1.752-1.149 2.956v20.198c0 4.543.848 8.374 2.545 11.494 1.752 3.12 4.106 5.502 7.061 7.144 3.01 1.587 6.404 2.38 10.181 2.38 3.668 0 6.925-.793 9.77-2.38a18.292 18.292 0 0 0 4.188-3.113v.896c0 1.204.383 2.217 1.15 3.038.238.222.493.412.763.57.693.44 1.496.661 2.41.661 1.258 0 2.27-.383 3.037-1.15.767-.82 1.15-1.833 1.15-3.037V45.063c0-2.025.547-3.804 1.642-5.337 1.095-1.587 2.572-2.846 4.434-3.776 1.86-.931 3.94-1.396 6.24-1.396 2.517 0 4.734.492 6.65 1.478 1.97.93 3.53 2.38 4.68 4.351 1.15 1.97 1.724 4.516 1.724 7.636v20.198c0 1.204.383 2.217 1.15 3.038Z" clip-rule="evenodd" fill-rule="evenodd"></path>
        </mask>
        <path mask="url(#ecae4cc8-d696-4a13-b17d-230dfc7f1176_comp-lv7pn3eh)" fill="#ffffff" d="m80.775 71.255-2.559 2.388.082.088.089.082 2.388-2.558Zm5.993 0 2.475 2.475-2.475-2.475Zm-1.395-34.73-3.075 1.671.011.021.012.02 3.052-1.713Zm-7.061-7.062-1.7 3.06.033.018.034.018 1.633-3.096Zm-19.87-.082 1.68 3.07-1.68-3.07Zm-4.187 3.088h-3.5v8.35l5.954-5.854-2.454-2.496Zm-1.15-3.909 2.475-2.475-2.475 2.475Zm-.77-.595-1.886 2.95.063.04.065.037 1.757-3.027Zm-5.44.513-2.388-2.559-.044.041-.043.043 2.475 2.475Zm-2.792 31.528 2.881 1.987-2.88-1.987Zm-4.434 3.777-1.565-3.13-.019.01-.018.009 1.602 3.111Zm-12.89 0-1.565 3.13.035.018.035.017 1.495-3.165Zm-4.68-4.434-3.044 1.728.01.018.01.018 3.024-1.764ZM19.143 28.56l-2.559 2.388.083.088.088.083 2.388-2.559Zm-5.994 0-2.474-2.475 2.474 2.475Zm1.396 34.648-3.074 1.673.01.02.012.02 3.052-1.713Zm7.061 7.144-1.7 3.06.034.018.034.018 1.632-3.096Zm19.952 0-1.68-3.07-.013.006-.012.007 1.705 3.057Zm4.187-3.113h3.5v-8.452l-5.975 5.978 2.475 2.474Zm1.15 3.934-2.559 2.388.082.088.089.082 2.388-2.558Zm.763.57 1.879-2.953-.057-.036-.058-.034-1.764 3.023Zm5.447-.488 2.475 2.475.043-.043.04-.044-2.558-2.388Zm2.792-31.529 2.848 2.035.017-.024.016-.024-2.881-1.987Zm17.324-3.694-1.6 3.112.052.027.053.026 1.495-3.165Zm4.68 4.351-3.023 1.764 3.023-1.764Zm5.912 28.521c-.388 0-.527-.093-.65-.208l-4.776 5.117c1.518 1.418 3.405 2.091 5.426 2.091v-7Zm.48-.124a.284.284 0 0 1-.107.075 1.04 1.04 0 0 1-.373.05v7c2.019 0 3.932-.677 5.43-2.175l-4.95-4.95Zm.207-.563c0 .314-.069.425-.207.563l4.95 4.95c1.504-1.505 2.257-3.42 2.257-5.513h-7Zm0-20.198v20.198h7V48.019h-7Zm-2.18-9.781c1.39 2.473 2.18 5.68 2.18 9.781h7c0-4.985-.961-9.442-3.075-13.208l-6.104 3.427Zm-5.64-5.679c2.371 1.251 4.236 3.096 5.618 5.637l6.15-3.344c-2.012-3.698-4.855-6.561-8.504-8.485l-3.265 6.192ZM68.212 30.5c3.253 0 6.022.702 8.399 2.023l3.4-6.12c-3.535-1.963-7.499-2.903-11.8-2.903v7Zm-8.09 1.952c2.338-1.28 5.009-1.952 8.09-1.952v-7c-4.145 0-7.988.916-11.451 2.81l3.36 6.142Zm-3.414 2.513c.977-.961 2.11-1.8 3.413-2.514l-3.36-6.14a22.312 22.312 0 0 0-4.961 3.663l4.908 4.991Zm-5.954-3.367v.871h7v-.871h-7Zm-.125-.563a.242.242 0 0 1 .064.098c.02.052.06.19.06.465h7c0-2.025-.645-3.984-2.174-5.513l-4.95 4.95Zm-.053-.043a.257.257 0 0 1 .053.043l4.95-4.95a7.247 7.247 0 0 0-1.488-1.147l-3.515 6.054Zm-.644-.164c.396 0 .514.085.516.086l3.77-5.898c-1.325-.847-2.81-1.188-4.286-1.188v7Zm-.65.209c.123-.116.262-.209.65-.209v-7c-2.021 0-3.908.674-5.426 2.091l4.776 5.118Zm-.038.479c0-.274.042-.413.061-.465a.242.242 0 0 1 .064-.098l-4.95-4.95c-1.53 1.53-2.175 3.488-2.175 5.513h7Zm0 23.154V31.515h-7V54.67h7Zm-2.26 7.323c1.506-2.185 2.26-4.66 2.26-7.324h-7c0 1.278-.34 2.36-1.023 3.35l5.762 3.974Zm-5.75 4.92c2.346-1.172 4.293-2.808 5.75-4.92l-5.763-3.974c-.733 1.064-1.742 1.946-3.118 2.634l3.13 6.26Zm-7.806 1.766c2.823 0 5.468-.56 7.843-1.784l-3.205-6.223c-1.238.637-2.753 1.007-4.638 1.007v7Zm-8.145-1.73c2.496 1.177 5.233 1.73 8.145 1.73v-7c-2.014 0-3.71-.378-5.156-1.06l-2.989 6.33Zm-6.208-5.836c1.48 2.536 3.536 4.5 6.138 5.8l3.13-6.26c-1.34-.67-2.402-1.662-3.222-3.067l-6.046 3.527Zm-2.201-9.4c0 3.486.652 6.671 2.18 9.364l6.088-3.455c-.77-1.358-1.268-3.263-1.268-5.908h-7Zm0-20.197v20.198h7V31.516h-7Zm-.12-.397c.066.061.077.092.081.1a.795.795 0 0 1 .039.297h7c0-2.096-.758-4.035-2.344-5.515l-4.776 5.118Zm-.568-.29a.79.79 0 0 1 .296.038c.01.004.04.015.101.081l5.118-4.776c-1.48-1.586-3.419-2.344-5.515-2.344v7Zm-.563.206c.138-.138.249-.207.563-.207v-7c-2.094 0-4.008.753-5.512 2.257l4.95 4.95Zm-.124.48c0-.227.035-.337.05-.373a.285.285 0 0 1 .074-.107l-4.95-4.95C9.177 27.584 8.5 29.496 8.5 31.515h7Zm0 20.199V31.516h-7v20.198h7Zm2.12 9.822c-1.35-2.483-2.12-5.704-2.12-9.822h-7c0 4.968.927 9.41 2.97 13.167l6.15-3.345Zm5.686 5.756c-2.355-1.309-4.255-3.208-5.709-5.797l-6.104 3.427c2.05 3.65 4.858 6.514 8.414 8.49l3.4-6.12Zm8.481 1.94c-3.271 0-6.094-.683-8.548-1.976l-3.265 6.192c3.567 1.88 7.531 2.785 11.813 2.785v-7Zm8.066-1.937c-2.262 1.262-4.919 1.938-8.066 1.938v7c4.188 0 8.046-.912 11.476-2.825l-3.41-6.113Zm3.417-2.53c-.96.96-2.085 1.8-3.392 2.516l3.36 6.141a21.794 21.794 0 0 0 4.983-3.709l-4.951-4.948Zm5.975 3.37v-.896h-7v.896h7Zm.208.65c-.115-.124-.208-.263-.208-.65h-7c0 2.02.674 3.907 2.091 5.426l5.117-4.777Zm-.031-.065a.787.787 0 0 1-.14-.106l-4.775 5.117a7.7 7.7 0 0 0 1.388 1.035l3.527-6.046Zm.645.184c-.325 0-.46-.07-.53-.114l-3.757 5.906c1.316.837 2.786 1.208 4.287 1.208v-7Zm.563-.124a.24.24 0 0 1-.098.063c-.051.02-.19.061-.465.061v7c2.025 0 3.984-.645 5.513-2.174l-4.95-4.95Zm.125-.563c0 .388-.093.526-.209.65l5.118 4.776c1.417-1.519 2.09-3.406 2.09-5.426h-7Zm0-23.154v23.154h7V45.063h-7Zm2.294-7.371c-1.551 2.172-2.294 4.674-2.294 7.371h7c0-1.354.352-2.409.99-3.302l-5.696-4.069Zm5.716-4.873c-2.346 1.173-4.293 2.809-5.75 4.92l5.763 3.974c.733-1.063 1.742-1.945 3.118-2.633l-3.13-6.261Zm7.805-1.765c-2.784 0-5.408.567-7.805 1.765l3.13 6.261c1.327-.663 2.862-1.026 4.675-1.026v-7Zm8.252 1.865c-2.489-1.28-5.27-1.865-8.252-1.865v7c2.056 0 3.707.4 5.05 1.09l3.202-6.225Zm6.102 5.7c-1.488-2.55-3.568-4.505-6.208-5.752l-2.99 6.33c1.3.613 2.341 1.56 3.152 2.95l6.046-3.527Zm2.201 9.4c0-3.521-.645-6.732-2.2-9.4l-6.047 3.528c.743 1.273 1.247 3.153 1.247 5.872h7Zm0 20.198V48.019h-7v20.198h7Zm.208.65c-.115-.124-.208-.262-.208-.65h-7c0 2.02.674 3.907 2.091 5.426l5.117-4.776Z" data-color="1"></path>
    </g>
</svg>